<?xml version="1.0" encoding="utf-8"?>
<svg xmlns="http://www.w3.org/2000/svg" x="0px" y="0px" width="204.5px" height="250px">
<rect x="0" y="0" fill="#FFFFFF" width="204.5" height="250"/>
<path d="M0.5,177h12.6V200c0,3.8,0.7,7,5.9,7c4.5,0,5.9-2.9,5.9-7V177h12.6v21.7c0,12.3-5.7,17.7-18.4,17.7
	c-11.9,0-18.5-4.5-18.5-17.7V177z M55.2,215.3v-13l-0.3-6l-0.5-5.6h0.1l7,24.6h8.7l7-24.6h0.1l-0.6,6.9l-0.2,6v11.7h11.3V177H72.6
	l-6.8,23.9L59.1,177H43.9v38.3H55.2z M130.9,215.3h-12.5l-1.5-5.1h-12.5l-1.4,5.1H90.6l13.7-38.3h12.8L130.9,215.3z M114.7,202.3
	l-4-13.7l-3.9,13.7H114.7z M165.3,188.2c-0.9-6.7-5.7-12.1-16.4-12.1c-9.6,0-16.6,4.1-16.6,12.2c0,14.6,22,10.6,22,16.4
	c0,1.8-2.1,2.8-5.2,2.8c-1.2,0-2.6-0.3-3.6-1c-1.1-0.6-1.8-1.7-2.1-3h-12c0.3,6.9,6.9,12.8,17,12.8c10.5,0,17.9-4.3,17.9-13.2
	c0-13.9-22-10.4-22-16.1c0-1.4,1.2-2.2,4-2.2c1.2,0,2.3,0.2,3.2,0.7c0.9,0.5,1.6,1.3,1.8,2.6H165.3z M203,188.2
	c-0.9-6.7-5.7-12.1-16.4-12.1c-9.6,0-16.6,4.1-16.6,12.2c0,14.6,22,10.6,22,16.4c0,1.8-2.1,2.8-5.2,2.8c-1.2,0-2.6-0.3-3.6-1
	c-1.1-0.6-1.8-1.7-2.1-3h-12c0.3,6.9,6.9,12.8,17,12.8c10.5,0,17.9-4.3,17.9-13.2c0-13.9-22-10.4-22-16.1c0-1.4,1.2-2.2,4-2.2
	c1.2,0,2.3,0.2,3.2,0.7c0.9,0.5,1.6,1.3,1.8,2.6H203z M9.5,153.5c0-30.7,80.8-90.7,80.8-110.3c0-6.6-7.8-8.5-15.9-8.5
	c-17,0-64.3,20.4-64.3,50.7c0,11.1,7.1,17.3,20.4,20.2c-10.1,5.5-24.4,2.2-30-7.3v69.8h18C13.1,165,9.5,159.2,9.5,153.5 M80.9,30
	c9.4,0,16.1,1.8,20.8,4.4L72.3,0.7H0.4v79.5C8,62.4,33.7,30,80.9,30 M41.6,168.1h33.8v-19.2C64.4,157.5,52.9,164.6,41.6,168.1"/>
<path fill="#0067B1" d="M204,0.5V167h-57.2c12-5.7,21-16.6,21-28.8c0-4.7-2.1-9.4-6.5-12.6c0,21.7-16.2,40.5-28.5,40.5
	c-6.3,0-10.5-3-10.5-8.7c0-22.6,43.4-91.2,60-109.3c-8.4,0.9-17.7-0.1-25.5,1.1C137.4,73.9,72,162.3,34,162.3
	c-4.7,0-6.8-0.8-6.8-5.1c0-19.2,82.4-88.6,82.4-110.3c0-3.9-2.1-8.4-7.5-11.9l30-34.5H204z M0.4,248.9h20.1v-6.5H8.6v-18.9H0.4
	V248.9z M45.4,222.8c-8.1,0-13.6,5.6-13.6,13.3c0,7.8,5.4,13.3,13.6,13.3c8.1,0,13.6-5.6,13.6-13.3
	C58.9,228.4,53.5,222.8,45.4,222.8 M45.4,243.1c-2.1,0-5.3-1.3-5.3-7c0-5.7,3.2-7,5.3-7c2.1,0,5.3,1.3,5.3,7
	C50.7,241.8,47.5,243.1,45.4,243.1 M105.2,223.4H97l-3.3,15.9h-0.1l-3.1-15.9h-7.3L80,239.2h-0.1l-3.3-15.7h-8.1l7.3,25.5h8.1
	l2.8-15.5h0.1l2.9,15.5h8L105.2,223.4z M116,248.9h22.5v-6.5h-14.3v-3.2h12.6v-6.1h-12.6v-3.2h13.9v-6.5H116V248.9z M151.4,248.9
	h20.1v-6.5h-11.8v-18.9h-8.2V248.9z M183.7,248.9h20.1v-6.5H192v-18.9h-8.2V248.9z"/>
</svg>
